PathFileType	4	(X/Y/Z)	C:\Users\WrightLab\Desktop\Jo\P1.2Trial33.trc
DataRate	CameraRate	NumFrames	NumMarkers	Units	OrigDataRate	OrigDataStartFrame	OrigNumFrames
100.00	100.00	       55	19	mm	100.00	671	       766
Frame#	Time	Headset_Front			Headset_Back			Headset_Left			Headset_Right			Left_Shoulder			Right_Shoulder			Sternum			C7			Left Elbow			Right Elbow			Left Wrist			Right Wrist			Left ASIS			Right ASIS			S2			Left Knee			Right Knee			Left Ankle			Right Ankle			
		X1	Y1	Z1	X2	Y2	Z2	X3	Y3	Z3	X4	Y4	Z4	X5	Y5	Z5	X6	Y6	Z6	X7	Y7	Z7	X8	Y8	Z8	X9	Y9	Z9	X10	Y10	Z10	X11	Y11	Z11	X12	Y12	Z12	X13	Y13	Z13	X14	Y14	Z14	X15	Y15	Z15	X16	Y16	Z16	X17	Y17	Z17	X18	Y18	Z18	X19	Y19	Z19	

671	6.700																												-473.17447	969.38690	-1360.97217				-372.66492	720.66284	-1291.23181													-343.17917	390.67230	-1436.39661							
672	6.710																												-476.97159	972.45886	-1363.34827				-379.18134	719.99054	-1300.44080													-348.19211	392.89310	-1442.82104							
673	6.720																												-480.88400	974.06476	-1369.11584				-386.18011	721.49426	-1305.19104													-352.59317	392.27518	-1451.14014							
674	6.730																												-486.26987	975.46686	-1375.16614				-392.99884	724.32202	-1311.51624													-357.20276	393.51990	-1455.19556							
675	6.740																												-490.01901	978.82867	-1374.28662				-400.44913	723.70215	-1317.12268													-361.07922	392.37384	-1464.54919							
676	6.750																												-494.78268	978.99597	-1383.31287				-407.63745	724.20801	-1322.49646													-364.92685	395.66400	-1465.85925							
677	6.760																												-498.52423	982.14319	-1389.46802				-414.18597	725.91595	-1330.43884													-368.39484	394.69409	-1475.46289							
678	6.770																												-502.32678	983.77881	-1390.45715				-421.48987	727.54858	-1332.11743													-371.03287	393.72153	-1483.62134							
679	6.780																												-507.28918	982.09650	-1400.21277				-427.97888	728.00732	-1337.04016													-374.56723	394.64191	-1486.51306							
680	6.790																												-510.79855	984.85309	-1398.85437				-435.08173	731.84320	-1331.33374													-380.03915	395.68945	-1483.87329							
681	6.800																												-515.74341	984.96582	-1407.14795				-441.67987	731.13507	-1336.28027													-384.50076	395.64792	-1484.40527							
682	6.810																												-520.25806	986.72662	-1406.70032				-448.65500	730.18518	-1341.68140													-388.04349	393.70374	-1491.20679							
683	6.820																												-523.64874	985.35809	-1413.55457				-456.05795	732.10278	-1340.36133													-394.18814	393.22302	-1490.96631							
684	6.830																												-528.64404	985.69006	-1416.02637				-463.15158	730.25714	-1344.99426													-399.09460	389.86212	-1498.13855							
685	6.840																												-531.91241	986.67920	-1417.65601				-469.44540	730.43970	-1344.66309													-404.77255	389.41690	-1498.39307							
686	6.850																												-536.74213	984.24207	-1423.76514				-475.58585	729.56250	-1347.26453													-410.96405	388.65204	-1499.78418							
687	6.860																												-538.10577	982.61298	-1430.02454				-481.93817	728.73138	-1346.18762													-416.18716	386.99274	-1503.27722							
688	6.870																												-542.63416	980.41992	-1434.67285				-489.56406	725.16180	-1350.79358													-422.19470	386.17300	-1505.26758							
689	6.880																												-545.32977	981.42279	-1434.36963				-497.09503	722.12512	-1354.68530													-426.90707	383.77872	-1512.27551							
690	6.890																												-548.25555	979.23529	-1435.81934				-502.37082	722.53412	-1352.74255													-431.15991	381.27890	-1515.38599							
691	6.900																												-551.56140	975.74133	-1443.97144				-509.46616	720.59814	-1354.59827													-435.21902	379.60147	-1517.61768							
692	6.910																												-553.80414	974.14459	-1441.73926				-516.04907	716.85168	-1356.65686													-438.31638	377.75146	-1523.57092							
693	6.920																												-555.42133	973.30194	-1445.26050				-523.29401	716.41217	-1359.41113													-441.72195	377.74579	-1522.77393							
694	6.930																												-559.02448	969.84924	-1450.52856				-528.98480	714.25452	-1360.47913													-444.29251	375.49063	-1529.64929							
695	6.940																												-559.82312	968.42737	-1454.04651				-534.68945	713.63831	-1362.46387													-446.29315	373.87518	-1531.96997							
696	6.950																												-562.07257	965.91516	-1457.27612				-541.91095	710.66498	-1368.01636													-449.14078	374.10339	-1532.05676							
697	6.960																												-564.86469	962.44916	-1466.42725				-548.51923	709.51312	-1369.42151													-451.21518	372.06653	-1536.44580							
698	6.970																												-566.17578	961.24280	-1468.51538				-552.90424	709.41901	-1368.24951													-452.73764	372.00720	-1537.42883							
699	6.980																												-567.55792	960.81335	-1469.76758				-558.39966	709.54938	-1370.17126													-454.21103	369.54489	-1544.75940							
700	6.990																												-570.51324	958.71436	-1479.37622				-564.94812	707.76630	-1375.33435													-456.30197	370.06250	-1542.63879							
701	7.000																												-571.57886	957.64758	-1484.24011				-569.85950	708.16901	-1376.02637																						
702	7.010																												-572.22107	957.08472	-1487.18945				-574.28882	708.06952	-1379.93494																						
703	7.020																												-573.92145	956.32300	-1496.32642				-580.83240	709.33118	-1385.69800																						
704	7.030																												-576.50165	956.93390	-1500.21289				-584.95734	710.43530	-1388.25525																						
705	7.040																												-576.45624	957.77222	-1504.47876				-589.50641	710.26263	-1392.81543																						
706	7.050																												-577.88055	958.54993	-1509.11963				-594.20453	712.86420	-1398.56042																						
707	7.060																												-580.20483	959.84155	-1516.21423				-598.48505	715.50201	-1402.75818																						
708	7.070																												-581.17798	959.03448	-1520.68628				-602.70917	714.32715	-1410.24451																						
709	7.080																												-582.28455	960.01379	-1524.01440				-605.39648	716.05487	-1413.12012																						
710	7.090																												-584.39807	960.33301	-1535.86755				-609.06067	715.99976	-1418.95508																						
711	7.100																												-586.05786	962.09692	-1538.58105				-610.59192	717.08636	-1421.94653																						
712	7.110																												-588.44751	965.28503	-1537.59119				-613.25116	715.59644	-1439.88916																						
713	7.120																												-591.36572	965.64813	-1547.26611				-614.77570	717.36621	-1440.40454																						
714	7.130																												-592.26385	965.19128	-1551.44507				-614.48773	717.37042	-1445.85620																						
715	7.140																												-593.21600	968.39960	-1555.81885				-615.20190	717.81006	-1453.35852																						
716	7.150																												-595.20081	969.10956	-1563.94653				-616.56036	716.89423	-1461.24695																						
717	7.160																												-596.54199	969.81671	-1568.52551				-617.49609	718.73657	-1464.08655																						
718	7.170																												-598.01904	974.35529	-1564.67554				-616.90051	720.41241	-1470.12329																						
719	7.180																												-596.40436	972.76923	-1577.26062				-616.55750	720.41870	-1472.52661																						
720	7.190																												-596.58490	974.22028	-1579.69702				-616.31787	721.07495	-1477.34070																						
721	7.200																												-596.15790	976.30139	-1584.24158				-616.43524	722.18451	-1483.30957																						
722	7.210																												-596.52942	976.12927	-1585.97693				-616.65045	722.50153	-1490.50732																						
723	7.220																												-594.78638	975.35608	-1594.05383				-616.63318	725.27509	-1489.98035																						
724	7.230																												-592.80469	977.56488	-1599.59656				-617.01294	725.14386	-1494.47803																						
725	7.240																												-591.86505	978.70044	-1599.80359				-616.76624	724.54382	-1498.76624																						
